<svg width="115" height="115" xmlns="http://www.w3.org/2000/svg">
 <metadata/>

 <g>
  <title>background</title>
  <rect fill="none" id="canvas_background" height="117" width="117" y="-1" x="-1"/>
 </g>
 <g>
  <title>Layer 1</title>
  <path fill="#ffffff" id="svg_1" d="m20.019352,99.619353l0,-11.2c-5.8,-0.3 -10.4,-5.1 -10.4,-11l0,-46.5c0,-6.1 4.9,-11 11,-11l44.2,0c1.4,0 2.5,1.1 2.5,2.5s-1.1,2.5 -2.5,2.5l-44.2,0c-3.3,0 -6,2.7 -6,6l0,46.5c0,3.3 2.7,6 6,6l1.9,0c1.4,0 2.5,1.1 2.5,2.5l0,10.7l12.4,-12.4c0.5,-0.5 1.1,-0.7 1.8,-0.7l46.5,0c3.3,0 6,-2.7 6,-6l0,-25.2c0,-1.4 1.1,-2.5 2.5,-2.5s2.5,1.1 2.5,2.5l0,25.1c0,6.1 -4.9,11 -11,11l-45.4,0l-13.9,13.9c-0.7,0.7 -1.7,1.1 -2.6,1.1c-0.5,0 -1,-0.1 -1.4,-0.3c-1.5,-0.6 -2.4,-2 -2.4,-3.5zm68.2,-88.2c-1.4,0 -2.5,1.1 -2.5,2.5l0,12l-12,0c-1.4,0 -2.5,1.1 -2.5,2.5s1.1,2.5 2.5,2.5l12,0l0,12c0,1.4 1.1,2.5 2.5,2.5s2.5,-1.1 2.5,-2.5l0,-12l12,0c1.4,0 2.5,-1.1 2.5,-2.5s-1.1,-2.5 -2.5,-2.5l-12,0l0,-12c0,-1.3 -1.1,-2.5 -2.5,-2.5z"/>
 </g>
</svg>