<svg id="layer_2" data-name="layer 2" xmlns="http://www.w3.org/2000/svg" viewBox="0 0 134.25 145.88"><defs><style>.cls-1,.cls-2{fill:#fff;stroke:#fff;stroke-miterlimit:10;}.cls-2{stroke-linecap:round;stroke-width:9px;}</style></defs><title>Artboard 139 copy</title><path class="cls-1" d="M67.17,85.57A18.75,18.75,0,0,1,48.44,66.85V36.7a18.72,18.72,0,0,1,37.45,0V66.85A18.75,18.75,0,0,1,67.17,85.57Zm0-65.77a16.92,16.92,0,0,0-16.9,16.9V66.85a16.9,16.9,0,0,0,33.79,0V36.7A16.92,16.92,0,0,0,67.17,19.8Z"/><path class="cls-1" d="M83.15,96.73H52A15.37,15.37,0,0,1,36.66,81.38h1.83A13.54,13.54,0,0,0,52,94.9H83.15A13.54,13.54,0,0,0,96.67,81.38H98.5A15.37,15.37,0,0,1,83.15,96.73Z"/><rect class="cls-1" x="66.19" y="99.57" width="1.83" height="31.01"/><line class="cls-2" x1="45.33" y1="130.91" x2="89.87" y2="130.91"/><path class="cls-1" d="M53.17,25.91,83.55,74.16S68.95,97.37,51.23,75.23L51.07,75l-1.3-3.71-.3-2.44-.1-34.28S50.77,28.06,53.17,25.91Z"/></svg>