<svg xmlns="http://www.w3.org/2000/svg" viewBox="0 0 134.25 145.88"><defs><style>.cls-1{fill:#fff;}</style></defs><title>Artboard 138</title><g id="layer_1" data-name="layer 1"><path class="cls-1" d="M114.26,69.88c-2.95-.94-5.72-2-8.59-2.68-6.3-1.43-12.56-.51-18.79.78-5.66,1.17-11.31,2.43-17,3.38a35.68,35.68,0,0,1-17.17-1,6,6,0,0,0-.72-.13v32.23c2.4.47,4.86.85,7.25,1.44a26.43,26.43,0,0,1,10.72,5c5.24,4.3,5.27,10,0,14.32-3.83,3.17-8.39,4.73-13.19,5.62-9.41,1.75-18.71,1.45-27.75-2a19.28,19.28,0,0,1-7.93-5.16c-3.06-3.5-3.13-7.56-.08-11.1s7.06-5.21,11.35-6.4c2.7-.75,5.47-1.2,8.35-1.81V16.13H51.89a14.56,14.56,0,0,1,0,2.37c-.25,1.48.48,2,1.78,2.4,6.37,1.93,12.8,1.71,19.22.49,6.25-1.18,12.45-2.71,18.72-3.77,7.34-1.23,14.61-.91,21.57,2.15.73.32,1.23.58,1.22,1.55q-.06,24.07,0,48.15A2.07,2.07,0,0,1,114.26,69.88ZM52.06,24.22a1.75,1.75,0,0,0-.14.33q0,20.4,0,40.8a1.56,1.56,0,0,0,.95,1.13,57.45,57.45,0,0,0,7.93,1.59c6.15.54,12.14-.79,18.13-2,4.62-1,9.24-2,13.91-2.65a37.78,37.78,0,0,1,17.66,1.27,5.34,5.34,0,0,0,.12-.75c0-13.39,0-26.78,0-40.17a1.84,1.84,0,0,0-1-1.4,60.47,60.47,0,0,0-8.89-1.63c-6-.4-11.81,1-17.63,2.22-4.1.86-8.2,1.74-12.33,2.42A39,39,0,0,1,52.06,24.22Zm-11.33,82c-1.76.29-3.38.46-5,.82-4.17,1-8.23,2.2-11.4,5.27-2.57,2.49-2.59,5.24.14,7.55A20.69,20.69,0,0,0,30,123.27c8.26,3.32,16.84,3.62,25.52,2.08,4.53-.8,8.9-2.13,12.45-5.25,2.95-2.58,3-5.43,0-8-4.57-4-10.22-5-16.17-5.84v10.68H40.73Zm3.91-86.52V113.3h3.5V19.74Z"/></g></svg>