<svg xmlns="http://www.w3.org/2000/svg" viewBox="0 0 134.25 145.88"><defs><style>.cls-1{fill:#fff;}</style></defs><title>Artboard 139</title><g id="layer_1" data-name="layer 1"><path class="cls-1" d="M92.28,37.36H32V118.1H92.28v-1.4c0-5.49,0-11,0-16.48,0-1.89,1.6-3.1,3-2.2a2.84,2.84,0,0,1,1.17,2c.09,6.73.06,13.46,0,20.2a2.07,2.07,0,0,1-2.07,2.28,12.72,12.72,0,0,1-1.46,0H31.21a14,14,0,0,1-1.59-.07,2,2,0,0,1-2-2.12c0-.4,0-.8,0-1.2q0-41.39,0-82.79c0-2.9.51-3.42,3.39-3.42H93.09a11.51,11.51,0,0,1,1.46.06,2,2,0,0,1,2,2.22q0,6.84,0,13.69a2,2,0,0,1-2.18,2.28,2.07,2.07,0,0,1-2.06-2.28C92.27,45.13,92.28,41.33,92.28,37.36Z"/><path class="cls-1" d="M60,106c.53-2.45,1.11-5.13,1.7-7.8.51-2.33,1-4.67,1.58-7a4.06,4.06,0,0,1,1-1.8Q83,70.59,101.74,51.87c1.31-1.31,2.34-1.33,3.66,0q5.66,5.61,11.27,11.27c1.27,1.29,1.26,2.38,0,3.69Q97.9,85.55,79.13,104.26a4.19,4.19,0,0,1-2,1c-4.78,1.09-9.58,2.12-14.38,3.15C61.11,108.77,59.93,107.81,60,106Zm17.26-6.12,27.55-27.55-3.31-3.4L73.89,96.51ZM70.51,93.2,81.09,82.62,98.23,65.48l-1.84-1.83L68.67,91.38ZM103.8,56.56l-4,4,8.31,8.3,4-4Zm-38.89,47,7.53-1.67-5.89-5.86Z"/><path class="cls-1" d="M62.12,51.22H42.86c-1.77,0-2.74-.78-2.71-2.15s1-2.1,2.68-2.1H81.47c1.88,0,3,1.33,2.47,2.84a2.25,2.25,0,0,1-2.43,1.42C75,51.2,68.58,51.22,62.12,51.22Z"/><path class="cls-1" d="M58.52,66.06h15.4a4.9,4.9,0,0,1,1.32.09,2.11,2.11,0,0,1-.16,4.14,7.1,7.1,0,0,1-1.32.06H43.34c-2.18,0-3.17-.66-3.2-2.1s1-2.19,3.23-2.19Z"/><path class="cls-1" d="M49.12,89.45c-2.12,0-4.25,0-6.37,0-1.67,0-2.61-.8-2.61-2.15s.91-2.12,2.49-2.13q6.57,0,13.13,0a2.16,2.16,0,1,1,0,4.28C53.54,89.47,51.33,89.45,49.12,89.45Z"/><path class="cls-1" d="M47.32,104.29c1.59,0,3.18,0,4.77,0a2.07,2.07,0,0,1,2.31,2,2.12,2.12,0,0,1-2.27,2.22q-4.84,0-9.67,0a2.12,2.12,0,0,1-2.31-2.19c0-1.26.92-2,2.4-2.05S45.73,104.29,47.32,104.29Z"/></g></svg>
