<?xml version="1.0" encoding="utf-8"?>
<!-- Generator: Adobe Illustrator 21.0.0, SVG Export Plug-In . SVG Version: 6.00 Build 0)  -->
<svg version="1.1" id="Layer_1" xmlns="http://www.w3.org/2000/svg" xmlns:xlink="http://www.w3.org/1999/xlink" x="0px" y="0px"
	 viewBox="0 0 432 190" style="enable-background:new 0 0 432 190;" xml:space="preserve">
<style type="text/css">
	.st0{fill:#FFFFFF;stroke:#FFFFFF;stroke-width:4;stroke-miterlimit:10;}
	.st1{fill:#FFFFFF;}
</style>
<title>Neuralle_logo_reverse</title>
<g id="layer_1">
	<path class="st0" d="M193.1,68.5v35.1c0,0.4-0.3,0.7-0.7,0.7c0,0,0,0,0,0c-0.4,0-0.7-0.3-0.7-0.7V66.5c0-0.2,0.1-0.5,0.3-0.6
		c0.3-0.2,0.7-0.2,1,0.1l25.5,35.5V66.6c0-0.4,0.3-0.7,0.7-0.7c0.4,0,0.7,0.3,0.7,0.7c0,0,0,0,0,0v37c0,0.4-0.3,0.7-0.7,0.7
		c0,0,0,0,0,0c-0.3,0-0.5-0.2-0.7-0.4c-0.1,0-0.1,0-0.1-0.1L193.1,68.5z"/>
	<path class="st0" d="M231.8,90.8c0.1-7.5,5.9-13.5,13.1-13.5c7,0.1,12.6,5.5,13,12.5V90c0,0.3-0.3,0.6-0.7,0.7h-24.1v0.2
		c-0.1,6.6,5.2,12,11.8,12.2c4,0,7.7-2.1,9.7-5.5c0.2-0.3,0.6-0.3,1-0.2c0.3,0.2,0.4,0.6,0.2,0.9c-2.4,3.7-6.5,6.1-10.9,6.1
		C237.7,104.1,231.8,98.1,231.8,90.8z M233.2,89.3h23.3c-0.6-6.4-6.3-11.2-12.7-10.6C238.2,79.3,233.8,83.7,233.2,89.3z"/>
	<path class="st0" d="M266.8,77.9c0-0.4,0.3-0.7,0.7-0.7c0,0,0,0,0,0c0.4,0,0.7,0.3,0.7,0.7v15.4c0,5.2,4.3,9.5,9.5,9.5
		s9.5-4.3,9.5-9.5V77.9c0-0.4,0.3-0.7,0.7-0.7c0.4,0,0.7,0.3,0.7,0.7v15.4c0,6-4.9,10.9-10.9,10.9c-6,0-10.9-4.9-10.9-10.9
		L266.8,77.9z"/>
	<path class="st0" d="M301.3,90.9c-0.1-0.1-0.1-0.2,0-0.3V77.9c0-0.4,0.3-0.7,0.7-0.7c0.4,0,0.7,0.3,0.7,0.6c0,0,0,0.1,0,0.1v9.2
		c0.5-1.1,1.1-2.2,1.7-3.2c2.1-3.2,5.6-6.7,10.8-6.7c0.4,0,0.7,0.3,0.7,0.7s-0.3,0.7-0.7,0.7c-3,0-5.9,1.4-7.9,3.7
		c-1.7,2-3,4.3-4,6.7c-0.4,1.2-0.7,1.9-0.7,1.9v12.7c0,0.4-0.2,0.7-0.7,0.7c-0.4,0-0.7-0.3-0.7-0.7c0,0,0,0,0,0L301.3,90.9z"/>
	<path class="st0" d="M346.7,77.9v25.6c0,0.4-0.2,0.7-0.6,0.7c0,0-0.1,0-0.1,0c-0.4,0-0.7-0.2-0.7-0.6c0,0,0-0.1,0-0.1v-6.8
		c-2,4.5-6.5,7.4-11.4,7.5c-7.1,0-12.8-6.1-12.8-13.5s5.7-13.5,12.8-13.5c4.9,0.1,9.3,3,11.4,7.5v-6.7c0-0.4,0.3-0.7,0.7-0.7
		C346.4,77.3,346.7,77.6,346.7,77.9z M345.3,90.8c0-6.7-5.1-12.1-11.4-12.1s-11.4,5.4-11.4,12.1S327.7,103,334,103
		S345.3,97.5,345.3,90.8z"/>
	<path class="st0" d="M359.5,66.3c0-0.4,0.3-0.7,0.7-0.7c0,0,0,0,0,0c0.4,0,0.7,0.3,0.7,0.7c0,0,0,0,0,0v37.2c0,0.4-0.3,0.7-0.7,0.7
		c0,0,0,0,0,0c-0.4,0-0.7-0.3-0.7-0.7c0,0,0,0,0,0V66.3z"/>
	<path class="st0" d="M373.2,66.3c0-0.4,0.3-0.7,0.7-0.7c0,0,0,0,0,0c0.4,0,0.7,0.3,0.7,0.7c0,0,0,0,0,0v37.2c0,0.4-0.3,0.7-0.7,0.7
		c0,0,0,0,0,0c-0.4,0-0.7-0.3-0.7-0.7c0,0,0,0,0,0V66.3z"/>
	<path class="st0" d="M387.2,90.8c0.1-7.5,5.9-13.5,13.1-13.5c7,0.1,12.6,5.5,13,12.5V90c0,0.3-0.3,0.6-0.7,0.7h-24.1v0.2
		c-0.1,6.6,5.2,12,11.8,12.2c4,0,7.7-2.1,9.7-5.5c0.2-0.3,0.6-0.3,1-0.2c0.3,0.2,0.4,0.6,0.2,0.9c-2.4,3.7-6.5,6.1-10.9,6.1
		C393,104.1,387.2,98.1,387.2,90.8z M388.6,89.3h23.3c-0.6-6.4-6.3-11.2-12.7-10.6C393.6,79.3,389.1,83.7,388.6,89.3z"/>
	<path class="st1" d="M80.8,88.8c-5.9,0-10.7-4.8-10.7-10.7s4.8-10.7,10.7-10.7s10.7,4.8,10.7,10.7v0C91.5,84,86.7,88.8,80.8,88.8z
		 M80.8,72.7c-3,0-5.4,2.4-5.4,5.4s2.4,5.4,5.4,5.4c3,0,5.4-2.4,5.4-5.4l0,0C86.2,75.1,83.8,72.7,80.8,72.7L80.8,72.7z"/>
	<path class="st1" d="M130.7,48.1c-16.1,0-28-4.1-35.3-12.1c-5.5-6.2-8.3-14.4-7.6-22.7L93,14l-2.6-0.3L93,14
		c-0.4,6.8,1.8,13.4,6.3,18.5c6.8,7.4,18.6,10.9,34.9,10.2l0.2,5.3C133.1,48,131.9,48.1,130.7,48.1z"/>
	<path class="st1" d="M74.6,183.6l-5.1-1.4c0.1-0.5,12.8-46.4-5.7-65.8c-8-8.5-21.1-10.8-38.9-6.8l-1.2-5.2
		c19.7-4.4,34.5-1.6,43.9,8.4c8.7,9.2,12.5,24,11.2,44C78.4,165.8,76.9,174.8,74.6,183.6z"/>
	<path class="st1" d="M93.5,183.6c-2.3-8.8-3.8-17.8-4.3-26.9c-1.2-20,2.6-34.8,11.2-43.9c9.4-9.9,24.2-12.8,43.9-8.4l-1.1,5.2
		c-17.8-3.9-30.9-1.6-38.9,6.8c-18.4,19.5-5.8,65.3-5.6,65.8L93.5,183.6z"/>
	<path class="st1" d="M30.6,48.1c-1.2,0-2.4,0-3.7-0.1l0.2-5.3c16.3,0.6,28.1-2.8,34.9-10.2c4.5-5.1,6.8-11.7,6.3-18.5l5.2-0.6
		c0.7,8.3-2.1,16.5-7.6,22.7C58.6,44,46.7,48.1,30.6,48.1z"/>
	<path class="st1" d="M107.4,132.6c-0.7-18,3.4-31.1,12-39c6.2-5.5,14.4-8.3,22.7-7.6l-0.7,5.2l0.4-2.7l-0.3,2.6
		c-6.8-0.4-13.4,1.8-18.5,6.3c-7.4,6.8-10.9,18.6-10.2,34.9L107.4,132.6z"/>
	<path class="st1" d="M54.6,132.6l-5.3-0.2c0.6-16.4-2.9-28.1-10.3-34.9c-5-4.5-11.7-6.8-18.4-6.3L19.9,86
		c8.3-0.7,16.5,2.1,22.7,7.6C51.2,101.5,55.2,114.6,54.6,132.6z"/>
	<path class="st1" d="M18.5,72c-0.8,0-1.6-0.1-2.3-0.2l0.6-5.2l-0.3,2.6l0.3-2.6c6.8,0.4,13.4-1.8,18.5-6.3
		c7.4-6.8,10.8-18.6,10.2-34.9l5.3-0.2c0.7,18-3.4,31.1-12,39C33.3,69.2,26,72,18.5,72z"/>
	<path class="st1" d="M143.9,72c-7.5,0-14.7-2.7-20.3-7.7c-8.6-7.9-12.7-21-12-39l5.3,0.2c-0.6,16.3,2.9,28,10.2,34.9
		c8.1,7.5,18.4,6.3,18.5,6.3l0.6,5.2C145.5,71.9,144.7,72,143.9,72z"/>
</g>
</svg>
