<svg xmlns="http://www.w3.org/2000/svg" data-name="Layer 1" viewBox="0 0 100 125" x="0px" y="0px"><title>Customize</title><path d="M87.5,0h-75A12.51,12.51,0,0,0,0,12.5v75A12.51,12.51,0,0,0,12.5,100h75A12.51,12.51,0,0,0,100,87.5v-75A12.51,12.51,0,0,0,87.5,0ZM95,87.5A7.51,7.51,0,0,1,87.5,95h-75A7.51,7.51,0,0,1,5,87.5v-75A7.51,7.51,0,0,1,12.5,5h75A7.51,7.51,0,0,1,95,12.5Z"/><path d="M70,32.5H57.06a7.49,7.49,0,0,0-14.12,0H30a2.5,2.5,0,0,0,0,5H42.94a7.49,7.49,0,0,0,14.12,0H70a2.5,2.5,0,0,0,0-5Zm-20,5A2.5,2.5,0,1,1,52.5,35,2.5,2.5,0,0,1,50,37.5Z"/><path d="M70,62.5H57.06a7.49,7.49,0,0,0-14.12,0H30a2.5,2.5,0,0,0,0,5H42.94a7.49,7.49,0,0,0,14.12,0H70a2.5,2.5,0,0,0,0-5Zm-20,5A2.5,2.5,0,1,1,52.5,65,2.5,2.5,0,0,1,50,67.5Z"/><path d="M65,42.5a7.51,7.51,0,0,0-7.06,5H30a2.5,2.5,0,0,0,0,5H57.94A7.5,7.5,0,1,0,65,42.5Zm0,10A2.5,2.5,0,1,1,67.5,50,2.5,2.5,0,0,1,65,52.5Z"/><text x="0" y="115" fill="#000000" font-size="5px" font-weight="bold" font-family="'Helvetica Neue', Helvetica, Arial-Unicode, Arial, Sans-serif">Created by Filipe Losna</text><text x="0" y="120" fill="#000000" font-size="5px" font-weight="bold" font-family="'Helvetica Neue', Helvetica, Arial-Unicode, Arial, Sans-serif">from the Noun Project</text></svg>